<svg xmlns:dc="http://purl.org/dc/elements/1.1/" xmlns:cc="http://creativecommons.org/ns#" xmlns:rdf="http://www.w3.org/1999/02/22-rdf-syntax-ns#" xmlns:svg="http://www.w3.org/2000/svg" xmlns="http://www.w3.org/2000/svg" viewBox="0 0 64 64" version="1.1" id="svg4811" height="64" width="64">
  <defs id="defs4813">
    <marker id="Arrow1Lstart" refX="0" refY="0" orient="auto" overflow="visible">
      <path transform="scale(0.8) translate(12.5,0)" d="M0 0L5-5 -12.5 0 5 5 0 0z" id="path5495" style="fill-rule:evenodd;stroke-width:1;stroke:#000"/>
    </marker>
  </defs>
  <metadata id="metadata4816">
    <rdf:RDF>
      <cc:Work rdf:about="">
        <dc:format>
          image/svg+xml
        </dc:format>
        <dc:type rdf:resource="http://purl.org/dc/dcmitype/StillImage"/>
      </cc:Work>
    </rdf:RDF>
  </metadata>
  <g id="layer2">
    <g transform="matrix(0.9972434,0,0,1.2487137,-13.533191,-7.0573549)" id="g5956">
      <path d="m45.63 6.31c-1.12 0.02-2.03 0.02-2.85 0.65-1.04 0.81-0.45 9.48-0.44 10.59l-0.58 9.39 0.06 8.69-0.38 8.87 0.19 7.35c-0.04 2.74 2.01 4.11 4.05 4.11 2.04 0 4.09-1.37 4.05-4.11l-0.39-9.78 0.51-9.72-0.45-11.64 0-10.29c0.02-1.14 0.38-2.49-0.87-3.5-0.77-0.63-1.78-0.62-2.93-0.61z" id="path5489-4" style="baseline-shift:baseline;block-progression:tb;clip-rule:nonzero;color-interpolation-filters:linearRGB;color-interpolation:sRGB;color-rendering:auto;color:#000000;direction:ltr;display:inline;enable-background:accumulate;fill-rule:evenodd;fill:#703f16;font-family:sans-serif;font-size:medium;image-rendering:auto;isolation:auto;letter-spacing:normal;line-height:normal;mix-blend-mode:normal;overflow:visible;shape-rendering:auto;solid-color:#000000;solid-opacity:1;stroke-linecap:round;stroke-miterlimit:3.9;stroke-width:0.2;stroke:#000;text-align:start;text-anchor:start;text-decoration-color:#000000;text-decoration-line:none;text-decoration-style:solid;text-decoration:none;text-indent:0;text-rendering:auto;text-transform:none;white-space:normal;word-spacing:normal;writing-mode:lr-tb"/>
      <path id="path5934" d="m45.9 7.04c-0.38 1.43-0.95 3.26-0.74 4.32 0.43 2.17 0.7 5.17 0.46 6.38l0.32 8.65-0.32 9.49-0.9 8.8 0.19 7.35c-0.04 2.74 0.6 3.88 1.84 3.48 1.79-0.57 1.92-1.15 2.58-2.91l-0.31-10.48 0.51-9.72-0.45-11.64 0-10.29c0.02-1.14 0.32-2.47-0.92-3.48-0.77-0.63-2.27-0.19-2.28 0.04z" style="baseline-shift:baseline;block-progression:tb;clip-rule:nonzero;color-interpolation-filters:linearRGB;color-interpolation:sRGB;color-rendering:auto;color:#000000;direction:ltr;display:inline;enable-background:accumulate;fill-rule:evenodd;fill:#ec9044;font-family:sans-serif;font-size:medium;image-rendering:auto;isolation:auto;letter-spacing:normal;line-height:normal;mix-blend-mode:normal;opacity:0.19;overflow:visible;shape-rendering:auto;solid-color:#000000;solid-opacity:1;text-align:start;text-anchor:start;text-decoration-color:#000000;text-decoration-line:none;text-decoration-style:solid;text-decoration:none;text-indent:0;text-rendering:auto;text-transform:none;white-space:normal;word-spacing:normal;writing-mode:lr-tb"/>
    </g>
    <g id="g6006">
      <path d="M32.2 4.06C18.62 4.06 5.94 21.9 6.81 21.72l8.2-1.66c0 0 6.36-5.31 12.53-7.55l0 4.36 8.93 0 0-4.65c6.08 1.9 12.16 6.97 12.48 7.03l8.26 1.63C57.95 21.03 45.78 4.06 32.2 4.06Z" id="path5962" style="fill-rule:evenodd;fill:#808080;stroke-linecap:round;stroke-linejoin:round;stroke-miterlimit:4;stroke-width:0.2;stroke:#000"/>
      <path id="path6004" d="m32.25 9.01c-6.79 0-10.88 2.87-16.11 6.59-5.3 3.77-7.52 5.36-7.08 5.27l1.8-0.3 4.1-0.83c0 0 1.59-1.33 3.95-2.94 2.36-1.61 5.74-3.54 8.82-4.66l0.07 2.56-0.02 1.92 8.07 0.1 0.22-0.19 0.02-2.06 0.02-2.68c3.1 0.7 6.52 2.86 8.84 4.37 2.32 1.51 3.92 2.79 4.08 2.83l4.13 0.81 1.6 0.35c0.37 0.07-1.98-1.41-7.35-5.13C42.26 11.45 39.04 9.01 32.25 9.01Z" style="fill-rule:evenodd;fill:#3b3b3b;opacity:0.43"/>
    </g>
    <g transform="translate(1.0606602,1.3700194)" id="g6070">
      <path d="m26.45 1.87c-0.4 0.01-0.77 0.61-0.92 0.93-0.16 0.31 2.88 3.86 3.11 4.18l1.54 2.84 3.9 5.19c0.38 0.55 1.4 1.08 1.81 0.8 0.41-0.28-0.09-1.43-0.65-1.78L31.82 8.68 28.41 3.47C28.31 3.33 27.69 2.26 26.99 1.91 26.84 1.83 26.62 1.87 26.45 1.87Z" id="path6010" style="baseline-shift:baseline;block-progression:tb;clip-rule:nonzero;color-interpolation-filters:linearRGB;color-interpolation:sRGB;color-rendering:auto;color:#000000;direction:ltr;display:inline;enable-background:accumulate;fill-rule:evenodd;fill:#8e6709;font-family:sans-serif;font-size:medium;image-rendering:auto;isolation:auto;letter-spacing:normal;line-height:normal;mix-blend-mode:normal;overflow:visible;shape-rendering:auto;solid-color:#000000;solid-opacity:1;stroke-linecap:round;stroke-linejoin:round;stroke-miterlimit:4;stroke-width:0.2;stroke:#000;text-align:start;text-anchor:start;text-decoration-color:#000000;text-decoration-line:none;text-decoration-style:solid;text-decoration:none;text-indent:0;text-rendering:auto;text-transform:none;white-space:normal;word-spacing:normal;writing-mode:lr-tb"/>
      <path id="path6039" d="m26.51 2.23c-0.4 0.01-0.86 0.55-0.66 0.83 0.54 0.77 2.78 3.57 3.02 3.9l1.51 2.79 3.82 5.05c0.38 0.55 1 1.07 1.41 0.78 0.41-0.28-0.89-0.59-1.06-1.37L31.34 9.23 28.48 4.74C28.22 4.27 27.87 3.65 27.21 2.98 27.09 2.87 26.68 2.23 26.51 2.23Z" style="baseline-shift:baseline;block-progression:tb;clip-rule:nonzero;color-interpolation-filters:linearRGB;color-interpolation:sRGB;color-rendering:auto;color:#000000;direction:ltr;display:inline;enable-background:accumulate;fill-rule:evenodd;fill:#ff0;font-family:sans-serif;font-size:medium;image-rendering:auto;isolation:auto;letter-spacing:normal;line-height:normal;mix-blend-mode:normal;opacity:0.2;overflow:visible;shape-rendering:auto;solid-color:#000000;solid-opacity:1;text-align:start;text-anchor:start;text-decoration-color:#000000;text-decoration-line:none;text-decoration-style:solid;text-decoration:none;text-indent:0;text-rendering:auto;text-transform:none;white-space:normal;word-spacing:normal;writing-mode:lr-tb"/>
      <path d="m35.54 1.65c-0.16 0-0.32 0.04-0.46 0.12-0.14 0.08-0.26 0.19-0.36 0.32l-4.54 6.59-4.1 5.6c-0.38 0.55-0.12 1.41 0.33 1.61 0.43 0.19 0.5 0.04 0.99-0.22 2-3.82 2.76-4.03 4.43-5.86L36.42 3.29C36.66 2.95 36.68 2.87 36.51 2.35 36.41 2.02 35.95 1.65 35.54 1.65Z" id="path6012" style="baseline-shift:baseline;block-progression:tb;clip-rule:nonzero;color-interpolation-filters:linearRGB;color-interpolation:sRGB;color-rendering:auto;color:#000000;direction:ltr;display:inline;enable-background:accumulate;fill-rule:evenodd;fill:#8e6709;font-family:sans-serif;font-size:medium;image-rendering:auto;isolation:auto;letter-spacing:normal;line-height:normal;mix-blend-mode:normal;overflow:visible;shape-rendering:auto;solid-color:#000000;solid-opacity:1;stroke-linecap:round;stroke-miterlimit:4;stroke-width:0.2;stroke:#000;text-align:start;text-anchor:start;text-decoration-color:#000000;text-decoration-line:none;text-decoration-style:solid;text-decoration:none;text-indent:0;text-rendering:auto;text-transform:none;white-space:normal;word-spacing:normal;writing-mode:lr-tb"/>
      <path id="path6037" d="m36 2.13c-0.16 0-0.19 0.08-0.33 0.15-0.14 0.08-0.27 0.18-0.36 0.31l-4.45 6.5-3.6 5.1c-0.38 0.55-1.16 1.33-0.7 1.54 0.43 0.19 0.75-0.4 0.75-0.4 2.13-3.64 2.64-3.83 4.31-5.66L36.27 3.14C36.31 2.83 36.38 2.5 36.38 2.5 36.26 2.27 36.36 2.27 36 2.13Z" style="baseline-shift:baseline;block-progression:tb;clip-rule:nonzero;color-interpolation-filters:linearRGB;color-interpolation:sRGB;color-rendering:auto;color:#000000;direction:ltr;display:inline;enable-background:accumulate;fill-rule:evenodd;fill:#ff0;font-family:sans-serif;font-size:medium;image-rendering:auto;isolation:auto;letter-spacing:normal;line-height:normal;mix-blend-mode:normal;opacity:0.2;overflow:visible;shape-rendering:auto;solid-color:#000000;solid-opacity:1;text-align:start;text-anchor:start;text-decoration-color:#000000;text-decoration-line:none;text-decoration-style:solid;text-decoration:none;text-indent:0;text-rendering:auto;text-transform:none;white-space:normal;word-spacing:normal;writing-mode:lr-tb"/>
    </g>
  </g>
</svg>
